<?xml version="1.0" encoding="UTF-8"?><svg id="Layer_1" xmlns="http://www.w3.org/2000/svg" width="3in" height="2.69448in" viewBox="0 0 216 194.00279"><defs><style>.cls-1{fill:#fff;stroke-width:0px;}</style></defs><path class="cls-1" d="m44.17998,141.46998c0-4.9046,2.97255-8.35283,7.78827-8.35283,4.66677,0,7.52027,3.44823,7.52027,8.05574,0,.05926,0,.29709-.02963.56483h-14.35719c0,4.31015,2.64556,7.16365,7.2528,7.16365,2.14026,0,4.19136-.53493,6.00463-1.78337l.44578.8024c-1.69422,1.15928-4.22099,1.90242-6.45041,1.90242-5.20197,0-8.17452-3.47785-8.17452-8.35283Zm14.35746-.59446c-.17831-4.01278-2.76434-6.89618-6.56919-6.89618-3.86437,0-6.8073,2.91303-6.8073,6.89618h13.37649Z"/><path class="cls-1" d="m60.23112,133.47404h.92145l5.88585,12.1873c.41615.86192.89155,1.87279,1.33759,2.8834l1.39712-2.94292,5.85568-12.12778h.92172l-7.69912,15.99215h-.92145l-7.69885-15.99215Z"/><path class="cls-1" d="m77.29259,141.46998c0-4.99376,2.82414-8.35283,7.8179-8.35283s7.81763,3.35907,7.81763,8.35283c0,4.96413-2.82387,8.35283-7.81763,8.35283s-7.8179-3.3887-7.8179-8.35283Zm14.68445,0c0-4.45883-2.43762-7.49064-6.86655-7.49064-4.4292,0-6.86655,3.03181-6.86655,7.49064s2.43735,7.49091,6.86655,7.49091c4.42893,0,6.86655-3.03208,6.86655-7.49091Z"/><path class="cls-1" d="m96.36396,146.07749v-18.60808l.86219-.35662v19.02423c0,1.8429.56483,2.82387,2.19952,2.82387.68388,0,1.24844-.17831,1.66459-.5352v.95135c-.20794.14868-.83229.44578-1.78337.44578-1.5159,0-2.94292-.71324-2.94292-3.74532Z"/><path class="cls-1" d="m100.48637,133.47404h.92145l5.88585,12.1873c.41615.86192.89155,1.87279,1.33759,2.8834l1.39712-2.94292,5.85568-12.12778h.92172l-7.69912,15.99215h-.92145l-7.69885-15.99215Z"/><path class="cls-1" d="m117.60764,141.46998c0-4.9046,2.97255-8.35283,7.78827-8.35283,4.66677,0,7.52027,3.44823,7.52027,8.05574,0,.05926,0,.29709-.02963.56483h-14.35719c0,4.31015,2.64556,7.16365,7.2528,7.16365,2.14026,0,4.19136-.53493,6.00463-1.78337l.44578.8024c-1.69422,1.15928-4.22099,1.90242-6.45041,1.90242-5.20197,0-8.17452-3.47785-8.17452-8.35283Zm14.35746-.59446c-.17831-4.01278-2.76434-6.89618-6.56919-6.89618-3.86437,0-6.8073,2.91303-6.8073,6.89618h13.37649Z"/><path class="cls-1" d="m145.33538,137.4273l4.57761,6.36125c1.45665,2.02148,2.49715,3.24029,4.75619,3.68606v2.22941c-3.03208-.23784-4.60751-1.93205-6.59909-4.63714l-4.31015-5.85595-3.71569,4.25062v6.00463h-2.3781v-21.99678h2.3781v12.96034l10.96876-12.96034h3.06171l-8.73935,9.95789Z"/><path class="cls-1" d="m154.10349,134.84126c0-4.36967,3.21039-7.72848,8.59067-7.72848,6.03426,0,9.12587,4.28025,9.12587,10.82008,0,7.31233-3.83474,11.88994-10.52299,11.88994-1.93205,0-4.24974-.11878-4.24974-.11878v-2.22941s2.67431.11878,4.27964.11878c4.60724,0,7.46101-3.06171,7.96631-8.05547-1.60506,1.48628-3.894,2.64556-6.98534,2.64556-4.9644,0-8.20442-2.91303-8.20442-7.34223Zm2.43762-.08916c0,3.12123,2.28867,5.14244,6.00436,5.14244,2.97255,0,5.35065-1.36722,6.8073-3.12096-.29736-4.57788-2.49688-7.43138-6.74777-7.43138-3.77522,0-6.06389,2.28867-6.06389,5.40991Z"/><path class="cls-1" d="m92.10854,79.68717c-.20511,1.34005-.7579,2.49237-1.52087,3.30967s-1.73614,1.2996-2.78199,1.2996h-2.0487c-1.04586,0-2.01902-.48229-2.78199-1.2996s-1.31576-1.96962-1.52087-3.30967h0c-.01887-.12327-.03726-.24856-.05518-.37538-.50311-3.55972-.50311-7.17626,0-10.73597.01792-.12681.03632-.2521.05518-.37536h0c.20511-1.34006.7579-2.49238,1.52087-3.30968s1.73614-1.2996,2.78199-1.2996h2.0487c1.04586,0,2.01902.48229,2.78199,1.2996s1.31576,1.96962,1.52087,3.30967h0c.01887.12327.03726.24856.05518.37538.50311,3.55972.50311,7.17626,0,10.73597-.01792.12681-.03632.2521-.05518.37536h0Z"/><path class="cls-1" d="m138.21889,104.00962l-23.39551-27.6492c-1.64381-1.94335-4.04166-3.05851-6.57752-3.05851s-4.93371,1.11516-6.57752,3.05851l-23.39551,27.6492c-2.91996,3.45097-2.48959,8.6155.96115,11.53546,1.53756,1.30096,3.41517,1.93705,5.28318,1.93681,2.32413,0,4.63328-.98479,6.25228-2.89796l17.14721-20.26472c.08612-.1018.2077-.15273.32922-.15273s.2431.05093.32922.15273l17.14721,20.26472c1.619,1.91318,3.92815,2.89796,6.25228,2.89796,1.86801.00023,3.74561-.63585,5.28318-1.93681,3.45074-2.91996,3.88112-8.08449.96115-11.53546Z"/><path class="cls-1" d="m105.60499,63.72686c-.41022,2.6801-2.21115,4.60927-4.30286,4.60927h-2.0487c-2.09171,0-3.89265-1.92918-4.30286-4.60927h0c-.75465-4.93039-.75465-10.00722,0-14.93759h0c.41022-2.68011,2.21115-4.60928,4.30286-4.60928h2.0487c2.09171,0,3.89265,1.92918,4.30286,4.60927h0c.75465,4.93039.75465,10.00722,0,14.93759h0Z"/><path class="cls-1" d="m124.38316,79.68717c.20511,1.34005.7579,2.49237,1.52087,3.30967s1.73614,1.2996,2.78199,1.2996h1.02435s1.02435,0,1.02435,0c1.04586,0,2.01902-.48229,2.78199-1.2996s1.31576-1.96962,1.52087-3.30967h0c.01887-.12327.03726-.24856.05518-.37538.50311-3.55972.50311-7.17626,0-10.73597-.01792-.12681-.03632-.2521-.05518-.37536h0c-.20511-1.34006-.7579-2.49238-1.52087-3.30968s-1.73614-1.2996-2.78199-1.2996h-1.02435s-1.02435,0-1.02435,0c-1.04586,0-2.01902.48229-2.78199,1.2996s-1.31576,1.96962-1.52087,3.30967h0c-.01887.12327-.03726.24856-.05518.37538-.50311,3.55972-.50311,7.17626,0,10.73597.01792.12681.03632.2521.05518.37536h0Z"/><path class="cls-1" d="m110.88671,63.72686c.41022,2.6801,2.21115,4.60927,4.30286,4.60927h2.0487c2.09171,0,3.89265-1.92918,4.30286-4.60927h0c.75465-4.93039.75465-10.00722,0-14.93759h0c-.41022-2.68011-2.21115-4.60928-4.30286-4.60928h-2.0487c-2.09171,0-3.89265,1.92918-4.30286,4.60927h0c-.75465,4.93039-.75465,10.00722,0,14.93759h0Z"/></svg>