<?xml version="1.0" encoding="UTF-8"?><svg id="Layer_1" xmlns="http://www.w3.org/2000/svg" width="3in" height="1.06987in" viewBox="0 0 216 77.03084"><defs><style>.cls-1{fill:#231f20;stroke-width:0px;}</style></defs><path class="cls-1" d="m63.82419,42.87443c0-5.28855,3.20525-9.00672,8.39796-9.00672,5.0321,0,8.10898,3.71816,8.10898,8.68637,0,.0639,0,.32035-.03195.60904h-15.48112c0,4.64756,2.85266,7.72444,7.82058,7.72444,2.30781,0,4.51948-.57681,6.47469-1.92298l.48067.86521c-1.82684,1.25004-4.55143,2.05135-6.95537,2.05135-5.60919,0-8.81445-3.75011-8.81445-9.00672Zm15.48141-.64099c-.19227-4.32692-2.98075-7.43604-7.08345-7.43604-4.16689,0-7.34019,3.14107-7.34019,7.43604h14.42364Z"/><path class="cls-1" d="m81.13186,34.25254h.99358l6.34661,13.14137c.44872.9294.96134,2.0194,1.44231,3.10912l1.50649-3.17331,6.31408-13.07718h.99387l-8.30183,17.24407h-.99358l-8.30154-17.24407Z"/><path class="cls-1" d="m99.52897,42.87443c0-5.38469,3.04522-9.00672,8.42991-9.00672s8.42962,3.62203,8.42962,9.00672c0,5.35274-3.04493,9.00672-8.42962,9.00672s-8.42991-3.65398-8.42991-9.00672Zm15.834,0c0-4.80788-2.62845-8.07703-7.40409-8.07703-4.77593,0-7.40409,3.26915-7.40409,8.07703s2.62816,8.07732,7.40409,8.07732c4.77564,0,7.40409-3.26944,7.40409-8.07732Z"/><path class="cls-1" d="m120.0933,47.84263v-20.06479l.92969-.38454v20.51351c0,1.98716.60904,3.04493,2.3717,3.04493.73742,0,1.34617-.19227,1.7949-.5771v1.02582c-.22422.16032-.89745.48067-1.92298.48067-1.63458,0-3.17331-.76908-3.17331-4.03852Z"/><path class="cls-1" d="m124.53843,34.25254h.99358l6.34661,13.14137c.44872.9294.96134,2.0194,1.44231,3.10912l1.50649-3.17331,6.31408-13.07718h.99387l-8.30183,17.24407h-.99358l-8.30154-17.24407Z"/><path class="cls-1" d="m143.00001,42.87443c0-5.28855,3.20525-9.00672,8.39796-9.00672,5.0321,0,8.10898,3.71816,8.10898,8.68637,0,.0639,0,.32035-.03195.60904h-15.48112c0,4.64756,2.85266,7.72444,7.82058,7.72444,2.30781,0,4.51948-.57681,6.47469-1.92298l.48067.86521c-1.82684,1.25004-4.55143,2.05135-6.95537,2.05135-5.60919,0-8.81445-3.75011-8.81445-9.00672Zm15.48141-.64099c-.19227-4.32692-2.98075-7.43604-7.08345-7.43604-4.16689,0-7.34019,3.14107-7.34019,7.43604h14.42364Z"/><path class="cls-1" d="m172.89838,38.51527l4.93596,6.85923c1.57068,2.17972,2.69263,3.49395,5.12852,3.97462v2.40394c-3.26944-.25646-4.9682-2.0833-7.11569-5.00015l-4.64756-6.31437-4.00657,4.58337v6.47469h-2.56426v-23.71877h2.56426v13.97492l11.82743-13.97492h3.30139l-9.42349,10.73743Z"/><path class="cls-1" d="m182.35287,35.7268c0-4.71175,3.46171-8.33349,9.26317-8.33349,6.50664,0,9.84027,4.61532,9.84027,11.66711,0,7.88476-4.13494,12.82073-11.34676,12.82073-2.0833,0-4.58243-.12808-4.58243-.12808v-2.40394s2.88367.12808,4.61467.12808c4.96791,0,8.04508-3.30139,8.58994-8.68608-1.73071,1.60263-4.19884,2.85266-7.53217,2.85266-5.35303,0-8.84669-3.14107-8.84669-7.917Zm2.62845-.09613c0,3.36558,2.46784,5.54501,6.4744,5.54501,3.20525,0,5.76952-1.47425,7.34019-3.36528-.32064-4.93625-2.69234-8.01314-7.27601-8.01314-4.07075,0-6.53859,2.46784-6.53859,5.83341Z"/><path class="cls-1" d="m24.86086,37.76726c-.13417.87655-.49576,1.63031-.99483,2.16492s-1.13564.85009-1.81976.85009h-1.3401c-.68412,0-1.32068-.31548-1.81976-.85009s-.86067-1.28837-.99483-2.16492h0c-.01234-.08063-.02437-.16259-.0361-.24554-.32909-2.32848-.32909-4.69413,0-7.02262.01172-.08295.02376-.16491.0361-.24553h0c.13417-.87656.49576-1.63031.99483-2.16493s1.13564-.85009,1.81976-.85009h1.3401c.68412,0,1.32068.31548,1.81976.85009s.86067,1.28837.99483,2.16492h0c.01234.08063.02437.16259.0361.24554.32909,2.32848.32909,4.69413,0,7.02262-.01172.08295-.02376.16491-.0361.24553h0Z"/><path class="cls-1" d="m55.02256,53.67706l-15.30347-18.0859c-1.07525-1.27118-2.64373-2.00063-4.30249-2.00063s-3.22724.72945-4.30249,2.00063l-15.30347,18.0859c-1.91001,2.25735-1.62849,5.63557.62871,7.54557,1.00575.85098,2.23393,1.26706,3.45583,1.26691,1.52026,0,3.03072-.64417,4.08974-1.89562l11.21633-13.25556c.05633-.06659.13586-.09991.21535-.09991s.15901.03331.21535.09991l11.21633,13.25556c1.05902,1.25145,2.56948,1.89562,4.08974,1.89562,1.2219.00015,2.45008-.41592,3.45583-1.26691,2.2572-1.91001,2.53872-5.28822.62871-7.54557Z"/><path class="cls-1" d="m33.68916,27.3273c-.26833,1.7531-1.44636,3.01502-2.81459,3.01502h-1.3401c-1.36823,0-2.54626-1.26191-2.81459-3.01502h0c-.49363-3.22506-.49363-6.54592,0-9.77098h0c.26833-1.75311,1.44636-3.01503,2.81459-3.01503h1.3401c1.36823,0,2.54626,1.26191,2.81459,3.01502h0c.49363,3.22506.49363,6.54592,0,9.77098h0Z"/><path class="cls-1" d="m45.97233,37.76726c.13417.87655.49576,1.63031.99483,2.16492s1.13564.85009,1.81976.85009h.67005s.67005,0,.67005,0c.68412,0,1.32068-.31548,1.81976-.85009s.86067-1.28837.99483-2.16492h0c.01234-.08063.02437-.16259.0361-.24554.32909-2.32848.32909-4.69413,0-7.02262-.01172-.08295-.02376-.16491-.0361-.24553h0c-.13417-.87656-.49576-1.63031-.99483-2.16493s-1.13564-.85009-1.81976-.85009h-.67005s-.67005,0-.67005,0c-.68412,0-1.32068.31548-1.81976.85009s-.86067,1.28837-.99483,2.16492h0c-.01234.08063-.02437.16259-.0361.24554-.32909,2.32848-.32909,4.69413,0,7.02262.01172.08295.02376.16491.0361.24553h0Z"/><path class="cls-1" d="m37.14404,27.3273c.26833,1.7531,1.44636,3.01502,2.81459,3.01502h1.3401c1.36823,0,2.54626-1.26191,2.81459-3.01502h0c.49363-3.22506.49363-6.54592,0-9.77098h0c-.26833-1.75311-1.44636-3.01503-2.81459-3.01503h-1.3401c-1.36823,0-2.54626,1.26191-2.81459,3.01502h0c-.49363,3.22506-.49363,6.54592,0,9.77098h0Z"/></svg>