<?xml version="1.0" encoding="UTF-8"?><svg id="Layer_1" xmlns="http://www.w3.org/2000/svg" width="2.82645in" height="3in" viewBox="0 0 203.50445 216"><defs><style>.cls-1{fill:#231f20;stroke-width:0px;}</style></defs><path class="cls-1" d="m80.20901,106.47308c-.27382,1.78896-1.01179,3.3273-2.03036,4.41839-1.01857,1.0911-2.31773,1.73496-3.71395,1.73496h-2.735c-1.39621,0-2.69538-.64386-3.71395-1.73496-1.01857-1.0911-1.75654-2.62944-2.03036-4.41839h0v-.00002c-.02519-.16455-.04974-.33181-.07367-.50111-.67165-4.7522-.67165-9.58027,0-14.33247.02393-.16929.04848-.33656.07367-.50111h0v-.00002c.27382-1.78896,1.01179-3.3273,2.03036-4.41839,1.01857-1.0911,2.31773-1.73496,3.71395-1.73496h2.735c1.39621,0,2.69538.64386,3.71395,1.73496,1.01857,1.0911,1.75654,2.62944,2.03036,4.41839h0v.00002c.02519.16455.04974.33181.07367.50111.67165,4.7522.67165,9.58027,0,14.33247-.02393.16929-.04848.33656-.07367.50111h0v.00002Z"/><path class="cls-1" d="m141.76607,138.94342l-31.23289-36.91154c-2.19448-2.59436-5.39559-4.08309-8.78096-4.08309s-6.58648,1.48873-8.78096,4.08309l-31.23289,36.91154c-3.89814,4.60703-3.32358,11.50164,1.28313,15.39978,2.05264,1.73677,4.55923,2.58595,7.05301,2.58564,3.1027,0,6.1854-1.31469,8.34677-3.86877l22.89143-27.05329c.11497-.13591.27728-.2039.4395-.2039s.32453.06799.4395.2039l22.89143,27.05329c2.16136,2.55408,5.24407,3.86877,8.34677,3.86877,2.49378.00031,5.00037-.84886,7.05301-2.58564,4.60672-3.89814,5.18127-10.79275,1.28313-15.39978Z"/><path class="cls-1" d="m98.22669,85.16615c-.54764,3.57791-2.95187,6.15335-5.7443,6.15335h-2.735c-2.79243,0-5.19666-2.57544-5.7443-6.15335v-.00002c-1.00745-6.58202-1.00745-13.35957,0-19.94159v-.00002c.54764-3.57791,2.95188-6.15335,5.7443-6.15335h2.735c2.79243,0,5.19666,2.57544,5.7443,6.15335v.00002c1.00745,6.58202,1.00745,13.35957,0,19.94159v.00002Z"/><path class="cls-1" d="m123.29544,106.47308c.27382,1.78896,1.01179,3.3273,2.03036,4.41839s2.31773,1.73496,3.71395,1.73496h1.3675s1.3675,0,1.3675,0c1.39621,0,2.69538-.64386,3.71395-1.73496s1.75654-2.62944,2.03036-4.41839h0v-.00002c.02519-.16455.04974-.33181.07367-.50111.67165-4.7522.67165-9.58027,0-14.33247-.02393-.16929-.04848-.33656-.07367-.50111h0v-.00002c-.27382-1.78896-1.01179-3.3273-2.03036-4.41839-1.01857-1.0911-2.31773-1.73496-3.71395-1.73496h-1.3675s-1.3675,0-1.3675,0c-1.39621,0-2.69538.64386-3.71395,1.73496-1.01857,1.0911-1.75654,2.62944-2.03036,4.41839h0v.00002c-.02519.16455-.04974.33181-.07367.50111-.67165,4.7522-.67165,9.58027,0,14.33247.02393.16929.04848.33656.07367.50111h0v.00002Z"/><path class="cls-1" d="m105.27776,85.16615c.54764,3.57791,2.95187,6.15335,5.7443,6.15335h2.735c2.79243,0,5.19666-2.57544,5.7443-6.15335v-.00002c1.00745-6.58202,1.00745-13.35957,0-19.94159v-.00002c-.54764-3.57791-2.95188-6.15335-5.7443-6.15335h-2.735c-2.79243,0-5.19666,2.57544-5.7443,6.15335v.00002c-1.00745,6.58202-1.00745,13.35957,0,19.94159v.00002Z"/></svg>